<svg xmlns="http://www.w3.org/2000/svg" version="1.1" xmlns:xlink="http://www.w3.org/1999/xlink" xmlns:svgjs="http://svgjs.dev/svgjs" width="1500" height="1500" viewBox="0 0 1500 1500"><rect width="1500" height="1500" fill="#ffffff"></rect><g transform="matrix(0.6666666666666666,0,0,0.6666666666666666,249.51296836591706,392.8516129032258)"><svg viewBox="0 0 348 248" data-background-color="#ffffff" preserveAspectRatio="xMidYMid meet" height="1068" width="1500" xmlns="http://www.w3.org/2000/svg" xmlns:xlink="http://www.w3.org/1999/xlink"><g id="tight-bounds" transform="matrix(1,0,0,1,0.16948700866086597,0.4000000000000057)"><svg viewBox="0 0 347.66102598267827 247.2" height="247.2" width="347.66102598267827"><g><svg viewBox="0 0 347.66102598267827 247.2" height="247.2" width="347.66102598267827"><g><svg viewBox="0 0 347.66102598267827 247.2" height="247.2" width="347.66102598267827"><g id="textblocktransform"><svg viewBox="0 0 347.66102598267827 247.2" height="247.2" width="347.66102598267827" id="textblock"><g><svg viewBox="0 0 347.66102598267827 247.2" height="247.2" width="347.66102598267827"><g transform="matrix(1,0,0,1,0,0)"><svg width="347.66102598267827" viewBox="-3.3 -46 105.53999999999999 75.05" height="247.2" data-palette-color="#030303"><path d="M9.25 1.35L9.25 1.35Q6.5 1.35 5.1 0 3.7-1.35 3.7-3.75L3.7-3.75 3.8-4.85Q3.8-5.25 3.6-5.25L3.6-5.25 3.3-5.05Q2.1-3.05 0.8-1.38-0.5 0.3-1.2 1L-1.2 1-1.9 1.65Q-2.6 2.3-2.95 2.3-3.3 2.3-3.3 1.7L-3.3 1.7Q-3.3 0.9-2.8-0.25L-2.8-0.25Q-2.05-1.9-0.73-4.67 0.6-7.45 4.58-14.53 8.55-21.6 12.3-27L12.3-27Q16.1-32.5 18.2-34.5L18.2-34.5Q18.95-35.25 19.35-35.25L19.35-35.25Q19.6-35.25 19.6-34.85L19.6-34.85Q19.6-34.75 19.5-34.15L19.5-34.15Q19.05-32.15 15.95-26.8L15.95-26.8Q9.75-16.7 6.95-10.4L6.95-10.4Q5.1-6.85 5.1-3.85L5.1-3.85Q5.1-2.15 6-1.07 6.9 0 8.5 0L8.5 0Q10.8 0 12.98-1.85 15.15-3.7 16.6-6.3 18.05-8.9 18.95-11.6 19.85-14.3 19.85-16.15L19.85-16.15Q19.85-20.6 15.75-21.55L15.75-21.55Q15.7-21.75 15.7-21.95L15.7-21.95Q15.7-22.55 16.4-22.65L16.4-22.65Q20.25-22.65 23.25-25.53 26.25-28.4 26.25-32.15L26.25-32.15Q26.25-34.25 24.7-35.88 23.15-37.5 18.95-37.5L18.95-37.5Q14.4-37.5 11.6-35 8.8-32.5 8.8-29.3L8.8-29.3Q8.8-28.4 9.15-27.65L9.15-27.65Q9.35-27.25 9.35-27L9.35-27Q9.35-26.7 9.05-26.7L9.05-26.7Q8.8-26.7 8.6-26.8L8.6-26.8Q8.25-26.95 7.75-27.2 7.25-27.45 6.43-28.45 5.6-29.45 5.6-30.65L5.6-30.65Q5.6-33.95 9.65-36.33 13.7-38.7 19.45-38.7L19.45-38.7Q20.05-38.7 20.83-38.65 21.6-38.6 23.35-38.2 25.1-37.8 26.43-37.13 27.75-36.45 28.8-35 29.85-33.55 29.85-31.6L29.85-31.6Q29.85-29.55 28.88-27.83 27.9-26.1 26.28-24.93 24.65-23.75 22.88-23 21.1-22.25 19.2-21.85L19.2-21.85Q18.85-21.7 18.85-21.55L18.85-21.55Q18.85-21.45 19.15-21.3L19.15-21.3Q19.3-21.2 19.6-21.05 19.9-20.9 20.63-20.25 21.35-19.6 21.93-18.82 22.5-18.05 22.95-16.7 23.4-15.35 23.4-13.85L23.4-13.85Q23.4-8.1 19.13-3.38 14.85 1.35 9.25 1.35ZM37-24.35L37-24.35Q40.55-26.85 43.37-30.03 46.2-33.2 47.67-35.88 49.15-38.55 49.9-40.5 50.65-42.45 50.65-43.3L50.65-43.3Q50.65-43.8 50.3-43.8L50.3-43.8Q49.6-43.8 48.6-42.8L48.6-42.8Q46.7-40.9 44.3-37.3 41.9-33.7 40.42-31.13 38.95-28.55 36.6-24.25L36.6-24.25Q36.8-24.25 37-24.35ZM31.65-7.55L31.65-7.55Q33.75-9.65 37.2-13.6L37.2-13.6Q37.35-13.75 37.45-13.75 37.55-13.75 37.55-13.55L37.55-13.55Q37.55-12.6 36.8-11.7L36.8-11.7Q33.1-7.6 30.25-4.85L30.25-4.85Q24 1.05 22.3 1.05L22.3 1.05Q21.55 1.05 21.55 0L21.55 0Q21.55-0.55 21.67-1.2 21.8-1.85 22.1-2.63 22.4-3.4 22.62-3.93 22.85-4.45 23.27-5.43 23.7-6.4 23.85-6.75L23.85-6.75Q25.25-9.9 32.45-23.35L32.45-23.35Q42.3-41.3 50.55-45.4L50.55-45.4Q51.75-46 52.95-46L52.95-46Q54.35-46 54.35-44.7L54.35-44.7Q54.35-41.7 52.3-38.13 50.25-34.55 47.3-31.55 44.35-28.55 41.52-26.3 38.7-24.05 36.65-22.9L36.65-22.9Q36.35-22.8 36.1-22.45L36.1-22.45Q33.9-18.9 31.8-14.83 29.7-10.75 28.65-8.4L28.65-8.4 27.65-6.1Q27.4-5.35 27.4-5.1L27.4-5.1Q27.4-4.65 27.75-4.65L27.75-4.65Q28.75-4.65 31.65-7.55ZM54.3-17.6L54.3-17.6Q54.75-17.5 54.75-17.3L54.75-17.3Q54.75-17 54.35-16.6L54.35-16.6Q53.8-16.05 52.72-15.15 51.65-14.25 51.45-14.05L51.45-14.05 50.75-13.1Q49.7-10.15 47.52-6.98 45.35-3.8 42.22-1.4 39.1 1 36.25 1L36.25 1Q32.7 1 32.7-3.35L32.7-3.35Q32.7-7.2 35.2-11.68 37.7-16.15 41.67-19.33 45.65-22.5 49.5-22.5L49.5-22.5Q52.3-22.5 52.3-20.3L52.3-20.3Q52.3-19.1 51.1-17.05L51.1-17.05Q51.05-17 51.05-16.9 51.05-16.8 51.15-16.8L51.15-16.8Q53-17.55 54.3-17.6ZM49.55-16.4L49.55-16.4Q49.95-18.15 49.95-19.1L49.95-19.1Q49.95-21.2 48.55-21.2L48.55-21.2Q46.6-21.2 43.7-17.6 40.8-14 38.72-9.5 36.65-5 36.65-2.4L36.65-2.4Q36.65-0.5 38-0.5L38-0.5Q40.1-0.5 43.02-4.7 45.95-8.9 46.55-13.15L46.55-13.15Q46.5-13.25 46.5-13.45L46.5-13.45Q46.5-14.9 49.1-16.05L49.1-16.05Q49.5-16.2 49.55-16.4ZM56.54 1.45L61.59-8.35Q61.79-8.75 61.79-8.9L61.79-8.9 61.29-8.55Q59.74-6.75 57.72-4.85 55.69-2.95 54.44-1.9L54.44-1.9 53.19-0.9Q51.14 0.6 50.09 0.6L50.09 0.6Q49.09 0.6 49.09-0.85L49.09-0.85Q49.09-4.45 51.74-9.35 54.39-14.25 58.62-17.95 62.84-21.65 66.64-21.65L66.64-21.65Q67.39-21.65 67.92-21.48 68.44-21.3 68.67-21.15 68.89-21 68.94-21L68.94-21Q69.04-21 69.19-21.15L69.19-21.15Q69.49-21.55 69.97-22.15 70.44-22.75 71.59-23.78 72.74-24.8 73.44-24.8L73.44-24.8Q73.79-24.8 73.79-24.3L73.79-24.3Q73.79-23.6 73.09-22.2L73.09-22.2Q67.74-12.35 66.59-10.3L66.59-10.3Q66.19-9.55 64.77-7.08 63.34-4.6 62.74-3.55L62.74-3.55Q65.89-6.1 67.94-7.95L67.94-7.95Q70.14-10.25 73.09-13.6L73.09-13.6Q73.24-13.75 73.34-13.75 73.44-13.75 73.44-13.55L73.44-13.55Q73.44-12.6 72.69-11.7L72.69-11.7Q70.49-9.3 68.89-7.6L68.89-7.6Q66.79-5.4 61.39-1.2L61.39-1.2 60.09 1.2Q50.44 18.95 46.79 24.3L46.79 24.3Q46.44 24.85 45.89 25.63 45.34 26.4 44.09 27.73 42.84 29.05 42.09 29.05L42.09 29.05Q40.89 29.05 40.89 25.6L40.89 25.6Q40.89 20.5 44.54 14.5L44.54 14.5Q48.39 8.15 56.54 1.45L56.54 1.45ZM68.24-20L68.24-20Q68.29-20.05 68.29-20.2L68.29-20.2Q68.29-20.55 67.49-20.55L67.49-20.55Q65.49-20.55 62.34-17.45 59.19-14.35 56.89-10.65 54.59-6.95 54.59-5.2L54.59-5.2Q54.59-4.5 55.19-4.5L55.19-4.5Q55.74-4.5 56.59-5.2L56.59-5.2Q57.34-5.85 58.62-7.03 59.89-8.2 62.99-12.05 66.09-15.9 68.24-20ZM45.79 14.4L45.79 14.4Q45.39 15 44.84 15.98 44.29 16.95 43.34 19.33 42.39 21.7 42.39 23.3L42.39 23.3Q42.39 24.15 42.69 24.15L42.69 24.15Q42.94 24.15 43.44 23.68 43.94 23.2 44.29 22.7L44.29 22.7 44.64 22.2Q48.84 15.7 55.24 3.85L55.24 3.85Q48.94 9.3 45.79 14.4ZM75.24-4.85L75.24-4.85Q69.39 0.65 67.74 0.65L67.74 0.65Q66.89 0.65 66.89-0.5 66.89-1.65 67.79-3.85 68.69-6.05 69.59-7.7L69.59-7.7 70.49-9.3Q74.29-15.95 76.24-18.85L76.24-18.85Q77.09-20.1 78.42-20.98 79.74-21.85 80.89-21.85L80.89-21.85Q81.29-21.85 81.29-21.5L81.29-21.5Q81.29-21.25 80.94-20.55L80.94-20.55Q80.34-19.45 77.99-15.3 75.64-11.15 75.19-10.3L75.19-10.3Q73.14-6.7 73.14-5.5L73.14-5.5Q73.14-5.05 73.44-5.05L73.44-5.05Q73.94-5.05 76.64-7.55L76.64-7.55Q78.74-9.65 82.19-13.6L82.19-13.6Q82.34-13.75 82.44-13.75 82.54-13.75 82.54-13.55L82.54-13.55Q82.54-12.6 81.79-11.7L81.79-11.7Q78.09-7.6 75.24-4.85ZM81.89-24.7L81.89-24.7Q80.64-24.7 80.64-26.2L80.64-26.2Q80.64-27.6 81.69-29.03 82.74-30.45 83.99-30.45L83.99-30.45Q85.49-30.45 85.49-28.75L85.49-28.75Q85.49-27.35 84.34-26.03 83.19-24.7 81.89-24.7ZM86.14-7.55L86.14-7.55Q88.24-9.65 91.69-13.6L91.69-13.6Q91.84-13.75 91.94-13.75 92.04-13.75 92.04-13.55L92.04-13.55Q92.04-12.6 91.29-11.7L91.29-11.7Q87.59-7.6 84.74-4.85L84.74-4.85Q78.74 0.95 76.79 0.95L76.79 0.95Q76.09 0.95 76.09 0.05L76.09 0.05Q76.09-1 76.89-3.1 77.69-5.2 78.49-6.8L78.49-6.8 79.29-8.35Q80.44-10.4 83.09-15.35 85.74-20.3 88.21-24.7 90.69-29.1 92.89-32.65L92.89-32.65 88.94-32.65Q88.44-32.65 88.44-32.9 88.44-33.15 88.84-33.4 89.24-33.65 89.69-33.65L89.69-33.65Q90.79-33.65 93.54-33.7L93.54-33.7Q95.99-37.55 97.74-39.8L97.74-39.8Q99.29-41.75 99.89-41.75L99.89-41.75Q100.24-41.75 100.24-41.3L100.24-41.3Q100.24-40.25 98.34-36.8L98.34-36.8 96.64-33.7 101.79-33.7Q102.24-33.7 102.24-33.45L102.24-33.45Q102.24-32.65 100.79-32.65L100.79-32.65 96.09-32.65Q84.54-10.75 83.94-9.7L83.94-9.7Q81.84-5.85 81.84-4.7L81.84-4.7Q81.84-4.35 82.09-4.35L82.09-4.35Q82.79-4.35 86.14-7.55Z" opacity="1" transform="matrix(1,0,0,1,0,0)" fill="#000000" class="wordmark-text-0" data-fill-palette-color="primary" id="text-0"></path></svg></g></svg></g></svg></g></svg></g></svg></g><defs></defs></svg><rect width="347.66102598267827" height="247.2" fill="none" stroke="none" visibility="hidden"></rect></g></svg></g></svg>